<svg width="230" height="82" viewBox="0 0 230 82" fill="none" xmlns="http://www.w3.org/2000/svg">
<circle cx="59.5046" cy="19.4941" r="18.3517" fill="#ED6A5A"/>
<path d="M31.1431 43.4092H2.69569C1.52614 43.4092 0.562988 44.353 0.562988 45.5371V52.9679C0.562988 54.1348 1.50894 55.0958 2.69569 55.0958H18.3297C19.2929 55.0958 19.6369 56.3829 18.7941 56.8462L4.5532 64.9462C3.33206 65.6327 3.10847 67.2973 4.10602 68.2926L12.1724 76.3411C13.17 77.3365 14.8555 77.0962 15.5263 75.8778L23.5411 61.4626C24.0055 60.6217 25.3126 60.9477 25.3126 61.9259V77.6625C25.3126 78.8295 26.2586 79.7905 27.4453 79.7905H34.8925C36.0621 79.7905 37.0252 78.8467 37.0252 77.6625V49.2782C36.9736 46.0176 34.3594 43.4092 31.1431 43.4092Z" fill="#1C5275"/>
<path d="M36.9737 7.86825V36.2525C36.9737 37.4195 36.0277 38.3805 34.841 38.3805H27.3937C26.2242 38.3805 25.261 37.4367 25.261 36.2525V20.6532C25.261 19.6922 23.9711 19.349 23.5067 20.1899L15.3887 34.3992C14.7007 35.6176 13.0324 35.8407 12.0348 34.8453L4.00283 26.814C3.00527 25.8187 3.24606 24.1369 4.4672 23.4676L18.9145 15.4706C19.7573 15.0072 19.4305 13.703 18.4501 13.703H2.67849C1.50894 13.703 0.562988 12.742 0.562988 11.575V4.14431C0.562988 2.97736 1.50894 2.03351 2.69569 2.03351H31.1431C34.3594 2.03351 36.9737 4.64198 36.9737 7.86825Z" fill="#1C5275"/>
<path d="M71.9742 43.409H43.5267C42.3572 43.409 41.394 44.3529 41.394 45.537V52.9677C41.394 54.1346 42.34 55.0956 43.5267 55.0956H59.1608C60.124 55.0956 60.4679 56.3827 59.6252 56.8461L45.3843 64.9461C44.1631 65.6325 43.9395 67.2971 44.9371 68.2925L53.0035 76.341C54.001 77.3363 55.6866 77.096 56.3573 75.8776L64.3721 61.4624C64.8365 60.6215 66.1437 60.9475 66.1437 61.9257V77.6624C66.1437 78.8293 67.0896 79.7903 68.2764 79.7903H75.7236C76.8931 79.7903 77.8563 78.8465 77.8563 77.6624V49.2781C77.8219 46.0175 75.2076 43.409 71.9742 43.409Z" fill="#1C5275"/>
<path d="M114.634 17.0365V16.126C114.634 14.1582 112.754 13.6295 109.788 13.6002V13.1303C111.608 13.1303 117.013 13.1303 117.013 7.43248C117.013 2.93887 113.048 1.1473 108.495 1.1473H100.095V22H104.56V14.8631H107.085C109.259 14.8631 110.169 16.1554 110.169 17.4476V18.1819C110.169 21.7063 113.752 22.235 117.13 22.235V18.4756C117.13 18.4756 114.634 18.6518 114.634 17.0365ZM107.849 11.3387H104.56V5.08288H107.849C110.786 5.08288 112.431 5.99335 112.431 8.28421C112.431 10.6338 110.463 11.3387 107.849 11.3387ZM119.213 22H126.879C133.927 22 137.599 17.4183 137.599 11.5736C137.599 5.72902 133.927 1.1473 126.879 1.1473H119.213V22ZM126.203 18.0057H123.677V5.11225H126.203C130.932 5.11225 133.076 7.28563 133.076 11.5736C133.076 15.9204 130.932 18.0057 126.203 18.0057ZM154.472 17.0365V16.126C154.472 14.1582 152.593 13.6295 149.626 13.6002V13.1303C151.447 13.1303 156.851 13.1303 156.851 7.43248C156.851 2.93887 152.886 1.1473 148.334 1.1473H139.934V22H144.398V14.8631H146.924C149.098 14.8631 150.008 16.1554 150.008 17.4476V18.1819C150.008 21.7063 153.591 22.235 156.969 22.235V18.4756C156.969 18.4756 154.472 18.6518 154.472 17.0365ZM147.688 11.3387H144.398V5.08288H147.688C150.625 5.08288 152.27 5.99335 152.27 8.28421C152.27 10.6338 150.302 11.3387 147.688 11.3387Z" fill="#1C5275"/>
<path d="M114.634 43.0365V42.126C114.634 40.1582 112.754 39.6295 109.788 39.6002V39.1303C111.608 39.1303 117.013 39.1303 117.013 33.4325C117.013 28.9389 113.048 27.1473 108.495 27.1473H100.095V48H104.56V40.8631H107.085C109.259 40.8631 110.169 42.1554 110.169 43.4476V44.1819C110.169 47.7063 113.752 48.235 117.13 48.235V44.4756C117.13 44.4756 114.634 44.6518 114.634 43.0365ZM107.849 37.3387H104.56V31.0829H107.849C110.786 31.0829 112.431 31.9933 112.431 34.2842C112.431 36.6338 110.463 37.3387 107.849 37.3387ZM126.25 44.9749C124.487 44.9749 122.901 43.8882 122.49 41.4799L132.858 41.3917C133.152 40.7456 133.181 39.7177 133.152 39.1009C133.122 35.9583 131.536 32.1989 125.985 32.1989C120.493 32.1989 118.555 36.017 118.555 40.1582C118.555 45.4154 122.108 48.2937 126.367 48.2937C130.068 48.2937 132.711 45.8854 133.122 43.5651L129.333 42.684C129.04 43.8001 128.188 44.9749 126.25 44.9749ZM126.044 35.459C128.1 35.459 129.51 36.8394 129.51 38.3373L122.52 38.396C122.901 36.3401 124.047 35.459 126.044 35.459ZM141.079 32.1108C137.525 32.1108 134.765 33.6087 134.765 36.6338C134.765 38.6016 135.352 41.0099 139.934 41.8029L141.432 42.0085C143.135 42.3022 143.84 42.6547 143.84 43.5358C143.84 44.5931 142.665 45.1217 141.285 45.1217C140.169 45.1217 138.641 44.505 138.641 42.8896L134.853 42.4784C134.853 46.2084 137.79 48.3231 141.285 48.3231C144.398 48.3231 147.57 46.6783 147.57 43.5945C147.57 41.1862 146.278 39.1596 142.43 38.631L140.462 38.3666C138.788 38.0729 138.495 37.6324 138.495 36.81C138.495 35.7821 139.64 35.3122 141.079 35.3122C142.93 35.3415 143.84 36.3695 143.84 37.603L147.541 37.838C147.541 34.6073 145.044 32.1108 141.079 32.1108ZM156.738 44.9749C154.976 44.9749 153.39 43.8882 152.979 41.4799L163.346 41.3917C163.64 40.7456 163.67 39.7177 163.64 39.1009C163.611 35.9583 162.025 32.1989 156.474 32.1989C150.982 32.1989 149.043 36.017 149.043 40.1582C149.043 45.4154 152.597 48.2937 156.856 48.2937C160.556 48.2937 163.2 45.8854 163.611 43.5651L159.822 42.684C159.528 43.8001 158.677 44.9749 156.738 44.9749ZM156.533 35.459C158.589 35.459 159.998 36.8394 159.998 38.3373L153.008 38.396C153.39 36.3401 154.535 35.459 156.533 35.459ZM170.84 48.3231C173.307 48.3231 174.54 47.4126 175.216 45.063L175.686 45.1511C175.216 45.7679 175.04 46.3259 175.04 46.972C175.04 47.5594 175.128 47.8238 175.216 48H179.357V47.765C179.298 47.6182 179.181 47.0895 179.181 46.5021V38.0436C179.181 36.6044 178.535 32.1108 172.161 32.1108C167.609 32.1108 165.289 35.2534 165.289 38.2785L169.342 37.5736C169.342 36.4576 170.605 35.7233 172.455 35.7233C174.57 35.7233 175.04 36.8394 175.04 37.3974V37.4855C175.04 37.6911 174.775 38.3079 172.015 38.6016C167.903 38.9834 165.583 39.8939 165.583 43.4476C165.583 46.5902 168.255 48.3231 170.84 48.3231ZM171.75 44.6224C171.133 44.6224 169.547 44.3581 169.547 43.0071C169.547 42.0673 170.164 41.5973 172.22 41.4211C174.599 41.1862 174.981 40.4519 175.069 40.1288V42.0379C175.069 44.2113 173.424 44.6224 171.75 44.6224ZM181.634 48H185.599V41.7148C185.511 37.7499 187.009 36.3695 189.123 36.3695C190.269 36.3695 191.032 36.8394 191.532 37.2506V32.9919C191.238 32.757 190.504 32.4339 189.329 32.4339C187.332 32.4339 186.186 33.9024 185.481 36.4576L185.011 36.3695C185.217 36.017 185.599 35.1066 185.599 33.8437C185.599 33.4618 185.599 33.08 185.511 32.7276H181.634V48ZM192.54 40.1582C192.54 44.6812 194.479 48.2937 200.382 48.2937C205.052 48.2937 207.255 45.5623 207.666 42.6253L203.701 42.0085C203.466 43.6532 202.379 44.6224 200.382 44.6224C197.592 44.6224 196.535 42.9777 196.535 40.1582C196.535 37.5736 197.886 35.9583 200 35.9583C201.528 35.9583 203.055 36.6338 203.319 38.2198L207.284 37.603C206.902 34.9303 204.905 32.287 200 32.287C194.479 32.287 192.54 36.1639 192.54 40.1582ZM209.71 48H213.675L213.733 41.2155C213.763 36.7807 216.083 36.017 217.728 36.017C220.312 36.017 220.635 37.0744 220.635 41.5973V48H224.6V39.9232C224.6 34.1667 222.868 32.1402 218.345 32.1402C215.848 32.1402 214.321 33.1975 213.469 36.0464L212.999 35.9583C213.352 35.3122 213.675 34.4017 213.675 33.2563L213.704 27.1473H209.71V48ZM104.031 70.035L104.06 53.1473H99.5668V74H113.488V70.035H104.031ZM119.471 74.3231C121.938 74.3231 123.172 73.4126 123.847 71.063L124.317 71.1511C123.847 71.7679 123.671 72.3259 123.671 72.972C123.671 73.5594 123.759 73.8238 123.847 74H127.988V73.765C127.929 73.6182 127.812 73.0895 127.812 72.5021V64.0436C127.812 62.6044 127.166 58.1108 120.793 58.1108C116.24 58.1108 113.92 61.2534 113.92 64.2785L117.973 63.5736C117.973 62.4576 119.236 61.7233 121.086 61.7233C123.201 61.7233 123.671 62.8394 123.671 63.3974V63.4855C123.671 63.6911 123.406 64.3079 120.646 64.6016C116.534 64.9834 114.214 65.8939 114.214 69.4476C114.214 72.5902 116.886 74.3231 119.471 74.3231ZM120.381 70.6224C119.765 70.6224 118.179 70.3581 118.179 69.0071C118.179 68.0673 118.795 67.5973 120.851 67.4211C123.23 67.1862 123.612 66.4519 123.7 66.1288V68.0379C123.7 70.2113 122.055 70.6224 120.381 70.6224ZM138.753 74.2937C142.424 74.2937 145.244 70.7106 145.244 66.3344C145.244 61.9877 142.248 58.3752 138.753 58.4045C136.403 58.4339 135.052 59.5793 134.142 61.1653V53.1473H130.177V72.5021C130.177 73.0895 130.177 73.5301 130.089 73.765V74H134.142C134.23 73.8238 134.259 73.442 134.259 73.1483C134.259 72.0909 133.789 71.1805 133.555 70.828L134.024 70.7399C134.612 72.6196 136.051 74.2937 138.753 74.2937ZM137.813 70.5931C135.17 70.5931 133.848 68.5372 133.848 66.3638C133.848 64.0142 135.17 62.0464 137.813 62.0464C140.222 62.0464 141.279 64.0729 141.279 66.3638C141.279 68.6547 140.104 70.5931 137.813 70.5931Z" fill="#ED6A5A"/>
<rect x="47.033" y="9.25549" width="24.943" height="4.98104" fill="white"/>
<circle cx="49.6557" cy="11.746" r="1.42787" fill="#ED6A5A"/>
<rect x="47.033" y="17.1539" width="24.943" height="4.98104" fill="white"/>
<circle cx="49.6557" cy="19.6444" r="1.42787" fill="#ED6A5A"/>
<rect x="47.033" y="25.0522" width="24.943" height="4.98104" fill="white"/>
<circle cx="49.6557" cy="27.5427" r="1.42787" fill="#ED6A5A"/>
</svg>
