<svg width="230" height="82" viewBox="0 0 230 82" fill="none" xmlns="http://www.w3.org/2000/svg">
<ellipse cx="59.5043" cy="19.4941" rx="18.3518" ry="18.3518" fill="#ED6A5A"/>
<path d="M31.1426 43.4092H2.6952C1.52565 43.4092 0.5625 44.3531 0.5625 45.5372V52.9679C0.5625 54.1349 1.50845 55.0959 2.6952 55.0959H18.3293C19.2924 55.0959 19.6364 56.383 18.7936 56.8463L4.55271 64.9463C3.33157 65.6327 3.10798 67.2974 4.10553 68.2927L12.1719 76.3412C13.1695 77.3366 14.855 77.0963 15.5258 75.8779L23.5406 61.4626C24.005 60.6217 25.3121 60.9478 25.3121 61.926V77.6626C25.3121 78.8296 26.2581 79.7906 27.4448 79.7906H34.8921C36.0616 79.7906 37.0248 78.8467 37.0248 77.6626V49.2783C36.9732 46.0177 34.3589 43.4092 31.1426 43.4092Z" fill="#F7F4F2"/>
<path d="M36.9732 7.86819V36.2525C36.9732 37.4194 36.0272 38.3805 34.8405 38.3805H27.3932C26.2237 38.3805 25.2605 37.4366 25.2605 36.2525V20.6531C25.2605 19.6921 23.9706 19.3489 23.5062 20.1898L15.3882 34.3991C14.7002 35.6175 13.0319 35.8406 12.0344 34.8453L4.00234 26.8139C3.00478 25.8186 3.24557 24.1368 4.46672 23.4675L18.914 15.4705C19.7568 15.0072 19.43 13.7029 18.4497 13.7029H2.678C1.50846 13.7029 0.5625 12.7419 0.5625 11.575V4.14425C0.5625 2.9773 1.50846 2.03345 2.6952 2.03345H31.1427C34.3589 2.03345 36.9732 4.64192 36.9732 7.86819Z" fill="#F7F4F2"/>
<path d="M71.9737 43.409H43.5263C42.3567 43.409 41.3936 44.3529 41.3936 45.537V52.9677C41.3936 54.1346 42.3395 55.0956 43.5263 55.0956H59.1603C60.1235 55.0956 60.4674 56.3827 59.6247 56.8461L45.3838 64.9461C44.1626 65.6325 43.939 67.2971 44.9366 68.2925L53.003 76.341C54.0006 77.3363 55.6861 77.0961 56.3568 75.8776L64.3717 61.4624C64.836 60.6215 66.1432 60.9475 66.1432 61.9257V77.6624C66.1432 78.8293 67.0891 79.7903 68.2759 79.7903H75.7231C76.8927 79.7903 77.8558 78.8465 77.8558 77.6624V49.2781C77.8214 46.0175 75.2071 43.409 71.9737 43.409Z" fill="#F7F4F2"/>
<path d="M114.633 17.0368V16.1264C114.633 14.1587 112.753 13.6301 109.787 13.6007V13.1308C111.608 13.1308 117.012 13.1308 117.012 7.43344C117.012 2.94012 113.047 1.14867 108.495 1.14867H100.096V22H104.56V14.8636H107.085C109.258 14.8636 110.169 16.1558 110.169 17.4479V18.1822C110.169 21.7063 113.752 22.2349 117.129 22.2349V18.4758C117.129 18.4758 114.633 18.652 114.633 17.0368ZM107.849 11.3394H104.56V5.08399H107.849C110.786 5.08399 112.43 5.9944 112.43 8.28511C112.43 10.6346 110.463 11.3394 107.849 11.3394ZM119.212 22H126.877C133.925 22 137.596 17.4186 137.596 11.5743C137.596 5.73009 133.925 1.14867 126.877 1.14867H119.212V22ZM126.202 18.0059H123.676V5.11336H126.202C130.93 5.11336 133.074 7.2866 133.074 11.5743C133.074 15.9208 130.93 18.0059 126.202 18.0059ZM154.469 17.0368V16.1264C154.469 14.1587 152.589 13.6301 149.623 13.6007V13.1308C151.444 13.1308 156.848 13.1308 156.848 7.43344C156.848 2.94012 152.883 1.14867 148.331 1.14867H139.932V22H144.396V14.8636H146.921C149.095 14.8636 150.005 16.1558 150.005 17.4479V18.1822C150.005 21.7063 153.588 22.2349 156.965 22.2349V18.4758C156.965 18.4758 154.469 18.652 154.469 17.0368ZM147.685 11.3394H144.396V5.08399H147.685C150.622 5.08399 152.266 5.9944 152.266 8.28511C152.266 10.6346 150.299 11.3394 147.685 11.3394Z" fill="#F7F4F2"/>
<path d="M114.633 43.0368V42.1264C114.633 40.1587 112.753 39.6301 109.787 39.6007V39.1308C111.608 39.1308 117.012 39.1308 117.012 33.4334C117.012 28.9401 113.047 27.1487 108.495 27.1487H100.096V48H104.56V40.8636H107.085C109.258 40.8636 110.169 42.1558 110.169 43.4479V44.1822C110.169 47.7063 113.752 48.2349 117.129 48.2349V44.4758C117.129 44.4758 114.633 44.652 114.633 43.0368ZM107.849 37.3394H104.56V31.084H107.849C110.786 31.084 112.43 31.9944 112.43 34.2851C112.43 36.6346 110.463 37.3394 107.849 37.3394ZM126.248 44.9751C124.486 44.9751 122.9 43.8885 122.489 41.4803L132.856 41.3922C133.15 40.7461 133.179 39.7182 133.15 39.1015C133.12 35.9591 131.534 32.2 125.984 32.2C120.492 32.2 118.554 36.0178 118.554 40.1587C118.554 45.4156 122.107 48.2937 126.366 48.2937C130.066 48.2937 132.709 45.8855 133.12 43.5654L129.332 42.6844C129.038 43.8004 128.186 44.9751 126.248 44.9751ZM126.043 35.4598C128.098 35.4598 129.508 36.8401 129.508 38.3379L122.518 38.3966C122.9 36.3409 124.045 35.4598 126.043 35.4598ZM141.077 32.1119C137.523 32.1119 134.763 33.6096 134.763 36.6346C134.763 38.6022 135.35 41.0104 139.931 41.8033L141.429 42.0089C143.132 42.3026 143.837 42.655 143.837 43.5361C143.837 44.5933 142.663 45.1219 141.282 45.1219C140.166 45.1219 138.639 44.5052 138.639 42.89L134.851 42.4788C134.851 46.2085 137.787 48.323 141.282 48.323C144.395 48.323 147.567 46.6784 147.567 43.5948C147.567 41.1866 146.275 39.1602 142.428 38.6316L140.46 38.3673C138.786 38.0736 138.492 37.6331 138.492 36.8108C138.492 35.7829 139.638 35.313 141.077 35.313C142.927 35.3424 143.837 36.3702 143.837 37.6037L147.538 37.8386C147.538 34.6082 145.041 32.1119 141.077 32.1119ZM156.735 44.9751C154.973 44.9751 153.387 43.8885 152.976 41.4803L163.342 41.3922C163.636 40.7461 163.666 39.7182 163.636 39.1015C163.607 35.9591 162.021 32.2 156.47 32.2C150.979 32.2 149.04 36.0178 149.04 40.1587C149.04 45.4156 152.594 48.2937 156.852 48.2937C160.553 48.2937 163.196 45.8855 163.607 43.5654L159.818 42.6844C159.525 43.8004 158.673 44.9751 156.735 44.9751ZM156.529 35.4598C158.585 35.4598 159.995 36.8401 159.995 38.3379L153.005 38.3966C153.387 36.3409 154.532 35.4598 156.529 35.4598ZM170.835 48.323C173.302 48.323 174.536 47.4126 175.211 45.0632L175.681 45.1513C175.211 45.768 175.035 46.326 175.035 46.9721C175.035 47.5595 175.123 47.8238 175.211 48H179.352V47.7651C179.293 47.6182 179.176 47.0896 179.176 46.5022V38.0442C179.176 36.6052 178.53 32.1119 172.157 32.1119C167.605 32.1119 165.285 35.2543 165.285 38.2792L169.337 37.5743C169.337 36.4583 170.6 35.7241 172.45 35.7241C174.565 35.7241 175.035 36.8401 175.035 37.3981V37.4862C175.035 37.6918 174.771 38.3085 172.01 38.6022C167.898 38.984 165.578 39.8944 165.578 43.4479C165.578 46.5903 168.251 48.323 170.835 48.323ZM171.746 44.6227C171.129 44.6227 169.543 44.3584 169.543 43.0074C169.543 42.0676 170.16 41.5978 172.216 41.4216C174.594 41.1866 174.976 40.4524 175.064 40.1294V42.0383C175.064 44.2115 173.42 44.6227 171.746 44.6227ZM181.629 48H185.593V41.7152C185.505 37.7505 187.003 36.3702 189.118 36.3702C190.263 36.3702 191.026 36.8401 191.526 37.2513V32.9929C191.232 32.758 190.498 32.4349 189.323 32.4349C187.326 32.4349 186.181 33.9033 185.476 36.4583L185.006 36.3702C185.212 36.0178 185.593 35.1074 185.593 33.8446C185.593 33.4628 185.593 33.081 185.505 32.7286H181.629V48ZM192.535 40.1587C192.535 44.6814 194.473 48.2937 200.376 48.2937C205.045 48.2937 207.248 45.5625 207.659 42.6256L203.694 42.0089C203.46 43.6535 202.373 44.6227 200.376 44.6227C197.586 44.6227 196.529 42.9781 196.529 40.1587C196.529 37.5743 197.88 35.9591 199.994 35.9591C201.521 35.9591 203.048 36.6346 203.313 38.2204L207.277 37.6037C206.896 34.9312 204.899 32.2881 199.994 32.2881C194.473 32.2881 192.535 36.1647 192.535 40.1587ZM209.703 48H213.667L213.726 41.216C213.756 36.7814 216.076 36.0178 217.72 36.0178C220.305 36.0178 220.628 37.0751 220.628 41.5978V48H224.592V39.9238C224.592 34.1676 222.86 32.1412 218.337 32.1412C215.841 32.1412 214.314 33.1985 213.462 36.0472L212.992 35.9591C213.344 35.313 213.667 34.4026 213.667 33.2572L213.697 27.1487H209.703V48ZM104.031 70.0353L104.06 53.1487H99.567V74H113.487V70.0353H104.031ZM119.47 74.323C121.937 74.323 123.17 73.4126 123.846 71.0632L124.316 71.1513C123.846 71.768 123.669 72.326 123.669 72.9721C123.669 73.5595 123.758 73.8238 123.846 74H127.987V73.7651C127.928 73.6182 127.81 73.0896 127.81 72.5022V64.0442C127.81 62.6052 127.164 58.1119 120.791 58.1119C116.239 58.1119 113.919 61.2543 113.919 64.2792L117.972 63.5743C117.972 62.4583 119.235 61.7241 121.085 61.7241C123.2 61.7241 123.669 62.8401 123.669 63.3981V63.4862C123.669 63.6918 123.405 64.3085 120.645 64.6022C116.533 64.984 114.213 65.8944 114.213 69.4479C114.213 72.5903 116.885 74.323 119.47 74.323ZM120.38 70.6227C119.763 70.6227 118.178 70.3584 118.178 69.0074C118.178 68.0676 118.794 67.5978 120.85 67.4216C123.229 67.1866 123.611 66.4524 123.699 66.1294V68.0383C123.699 70.2115 122.054 70.6227 120.38 70.6227ZM138.751 74.2937C142.422 74.2937 145.241 70.7108 145.241 66.3349C145.241 61.9885 142.245 58.3762 138.751 58.4056C136.401 58.4349 135.05 59.5803 134.14 61.1662V53.1487H130.175V72.5022C130.175 73.0896 130.175 73.5301 130.087 73.7651V74H134.14C134.228 73.8238 134.257 73.442 134.257 73.1483C134.257 72.0911 133.787 71.1807 133.552 70.8282L134.022 70.7401C134.61 72.6197 136.049 74.2937 138.751 74.2937ZM137.811 70.5933C135.168 70.5933 133.846 68.5375 133.846 66.3643C133.846 64.0149 135.168 62.0472 137.811 62.0472C140.219 62.0472 141.276 64.0736 141.276 66.3643C141.276 68.655 140.102 70.5933 137.811 70.5933Z" fill="#ED6A5A"/>
<rect x="47.033" y="9.25543" width="24.943" height="4.98104" fill="white"/>
<circle cx="49.6559" cy="11.7459" r="1.42787" fill="#ED6A5A"/>
<rect x="47.033" y="17.1539" width="24.943" height="4.98104" fill="white"/>
<circle cx="49.6559" cy="19.6445" r="1.42787" fill="#ED6A5A"/>
<rect x="47.033" y="25.0522" width="24.943" height="4.98104" fill="white"/>
<circle cx="49.6559" cy="27.5427" r="1.42787" fill="#ED6A5A"/>
</svg>
